<svg width="200" height="200" viewBox="0 0 200 200" fill="none" xmlns="http://www.w3.org/2000/svg">
	<g id="logo">
		<ellipse id="ellipse" cx="100" cy="99" rx="90" ry="75" fill="#67809e"/>
		<path id="stars" fill-rule="evenodd" clip-rule="evenodd" d="M52.3316 81.4436L49.2764 76.2957L52.3316 71.1479H46.2211L43.1658 66L40.1106 71.1479H34L37.0552 76.2957L34 81.4436H40.1106L42.6522 85.7259L42.3703 86.1015L41.6486 87.1215L40.9612 88.1559L40.3086 89.2045L39.6915 90.2665L39.1103 91.3409L38.5656 92.4286L38.0579 93.5287L37.5877 94.6403L37.1556 95.7642L36.7621 96.8987L36.4078 98.0436L36.0932 99.2L35.8188 100.366L35.5851 101.541L35.3927 102.725L35.2421 103.92L35.1339 105.121L35.0686 106.332L35.0467 107.549L35.0686 108.767L35.1339 109.977L35.2421 111.179L35.3927 112.373L35.5851 113.558L35.8188 114.733L36.0932 115.899L36.4078 117.054L36.7621 118.2L37.1556 119.335L37.5877 120.458L38.0579 121.57L38.5656 122.67L39.1103 123.758L39.6915 124.833L40.3086 125.895L40.9612 126.943L41.6486 127.978L42.3703 128.998L43.1259 130.003L43.9147 130.994L44.7362 131.97L45.59 132.929L46.4754 133.873L47.3918 134.799L48.339 135.71L49.3161 136.602L50.3228 137.477L51.3585 138.334L52.4226 139.173L53.5146 139.993L54.6341 140.793L55.7803 141.575L56.9529 142.335L58.1513 143.076L59.3749 143.796L60.6232 144.495L61.8957 145.171L63.1918 145.827L64.5111 146.46L65.8528 147.071L67.2167 147.659L68.602 148.223L70.0083 148.763L71.435 149.279L72.8816 149.771L74.3476 150.237L75.8323 150.679L77.3355 151.094L78.8563 151.484L80.3944 151.847L81.9492 152.183L83.5204 152.492L85.1061 152.774L86.708 153.027L88.3242 153.252L89.9548 153.448L91.5981 153.616L93.2549 153.753L94.9235 153.861L96.6049 153.938L98.2963 153.985L99.9997 154L101.703 153.985L103.394 153.938L105.076 153.861L106.744 153.753L108.401 153.616L110.045 153.448L111.675 153.252L113.291 153.027L114.893 152.774L116.479 152.492L118.05 152.183L119.605 151.847L121.144 151.484L122.664 151.094L124.167 150.679L125.652 150.237L127.118 149.771L128.565 149.279L129.992 148.763L131.397 148.223L132.783 147.659L134.147 147.071L135.489 146.46L136.808 145.827L138.104 145.171L139.376 144.495L140.624 143.796L141.848 143.076L143.047 142.335L144.22 141.575L145.366 140.793L146.485 139.993L147.577 139.173L148.641 138.334L149.677 137.477L150.684 136.602L151.66 135.71L152.608 134.799L153.524 133.873L154.41 132.929L155.263 131.97L156.085 130.994L156.874 130.003L157.63 128.998L158.351 127.978L159.039 126.943L159.691 125.895L160.308 124.833L160.889 123.758L161.434 122.67L161.942 121.57L162.412 120.458L162.844 119.335L163.238 118.2L163.592 117.054L163.907 115.899L164.181 114.733L164.414 113.558L164.607 112.373L164.758 111.179L164.866 109.977L164.931 108.767L164.953 107.549L164.931 106.332L164.866 105.121L164.758 103.92L164.607 102.725L164.414 101.541L164.181 100.366L163.907 99.2L163.592 98.0436L163.238 96.8987L162.844 95.7642L162.412 94.6403L161.942 93.5287L161.434 92.4286L160.889 91.3409L160.308 90.2665L159.691 89.2045L159.039 88.1559L158.351 87.1215L157.63 86.1015L157.347 85.7259L159.89 81.4436H166L162.944 76.2957L166 71.1479H159.89L156.834 66L153.778 71.1479H147.668L150.723 76.2957L147.668 81.4436H153.55L153.607 81.547L154.124 82.5452L154.608 83.5551L155.059 84.5765L155.477 85.6086L155.861 86.6525L156.211 87.7059L156.526 88.7688L156.806 89.8423L157.05 90.9252L157.258 92.0168L157.428 93.1169L157.562 94.2246L157.658 95.341L157.717 96.4649L157.736 97.5955L157.717 98.7262L157.658 99.8501L157.562 100.966L157.428 102.075L157.258 103.175L157.05 104.267L156.806 105.349L156.526 106.422L156.211 107.486L155.861 108.54L155.477 109.582L155.059 110.615L154.608 111.636L154.124 112.646L153.607 113.645L153.058 114.63L152.478 115.604L151.868 116.564L151.226 117.512L150.554 118.445L149.853 119.365L149.123 120.271L148.365 121.162L147.577 122.038L146.763 122.899L145.92 123.744L145.052 124.573L144.157 125.385L143.237 126.181L142.29 126.96L141.32 127.721L140.325 128.465L139.306 129.19L138.264 129.897L137.198 130.585L136.111 131.253L135.001 131.901L133.87 132.531L132.718 133.14L131.545 133.727L130.353 134.294L129.14 134.839L127.909 135.364L126.659 135.865L125.391 136.345L124.105 136.801L122.802 137.234L121.482 137.644L120.146 138.03L118.794 138.392L117.426 138.729L116.044 139.042L114.648 139.329L113.238 139.59L111.815 139.825L110.378 140.034L108.929 140.216L107.468 140.371L105.995 140.499L104.512 140.599L103.017 140.671L101.514 140.715L99.9997 140.729L98.4858 140.715L96.9821 140.671L95.4876 140.599L94.0042 140.499L92.5318 140.371L91.0703 140.216L89.6216 140.034L88.1846 139.825L86.7613 139.59L85.3514 139.329L83.9551 139.042L82.5727 138.729L81.2056 138.392L79.8537 138.03L78.5177 137.644L77.1978 137.234L75.8947 136.801L74.6088 136.345L73.3406 135.865L72.0906 135.364L70.8592 134.839L69.6469 134.294L68.4543 133.727L67.2815 133.14L66.1295 132.531L64.9984 131.901L63.8888 131.253L62.8011 130.585L61.7359 129.897L60.6936 129.19L59.6747 128.465L58.6797 127.721L57.7089 126.96L56.7631 126.181L55.8425 125.385L54.9477 124.573L54.079 123.744L53.2372 122.899L52.4225 122.038L51.6355 121.162L50.8766 120.271L50.1463 119.365L49.4452 118.445L48.7736 117.512L48.132 116.564L47.521 115.604L46.9409 114.63L46.3924 113.645L45.8758 112.646L45.3916 111.636L44.9403 110.615L44.5224 109.582L44.1383 108.54L43.7885 107.486L43.4736 106.422L43.1939 105.349L42.95 104.267L42.7423 103.175L42.5713 102.075L42.4374 100.966L42.3412 99.8501L42.2831 98.7262L42.2637 97.5955L42.2831 96.4649L42.3412 95.341L42.4374 94.2246L42.5713 93.1169L42.7423 92.0168L42.95 90.9252L43.1939 89.8423L43.4736 88.7688L43.7885 87.7059L44.1383 86.6525L44.5224 85.6086L44.9403 84.5765L45.3916 83.5551L45.8758 82.5452L46.3924 81.547L46.4499 81.4436H52.3316ZM46.1344 81.5897L46.2211 81.4436H46.2715L46.1344 81.5897ZM153.728 81.4436H153.778L153.865 81.5897L153.728 81.4436Z" fill="white" />
		<path id="inner-oval" d="M181 99C181 135.271 144.933 165 100 165C55.0666 165 19 135.271 19 99C19 62.7286 55.0666 33 100 33C144.933 33 181 62.7286 181 99Z" stroke="white"/>
		<path id="b-letter" d="M132.08 91.888C131.264 91.408 130.232 91.168 128.984 91.168C127.352 91.216 126.344 91.36 125.96 91.6C125.624 91.792 125.264 92.464 124.88 93.616C124.256 95.392 123.944 97.696 123.944 100.528V103.264C123.992 106.816 124.184 108.952 124.52 109.672C124.856 110.344 125.384 110.944 126.104 111.472C128.504 113.248 130.736 114.136 132.8 114.136C133.616 114.136 134.696 114.016 136.04 113.776C138.584 113.296 140.168 112.288 140.792 110.752C141.704 108.64 142.16 106.528 142.16 104.416C142.16 103.12 141.944 101.992 141.512 101.032C141.224 100.408 139.784 98.872 137.192 96.424C134.648 93.928 132.944 92.416 132.08 91.888ZM126.968 70.288C125.672 69.52 124.856 69.088 124.52 68.992H124.304C123.392 68.992 122.624 70.048 122 72.16C121.376 74.272 121.064 76.576 121.064 79.072C121.064 82.096 121.544 84.232 122.504 85.48C123.224 86.44 124.328 86.92 125.816 86.92C126.632 86.92 127.328 86.704 127.904 86.272C128.672 85.648 129.416 84.256 130.136 82.096C130.472 81.088 130.64 79.816 130.64 78.28C130.64 76.024 130.232 74.104 129.416 72.52C129.176 72.04 128.936 71.704 128.696 71.512C128.456 71.272 127.88 70.864 126.968 70.288ZM110.552 60.64C110.888 60.64 111.2 60.712 111.488 60.856C111.92 61.096 112.592 61.288 113.504 61.432C114.32 61.624 114.944 61.84 115.376 62.08C115.808 62.32 116.576 62.92 117.68 63.88C118.976 64.984 120.2 65.536 121.352 65.536C122.12 65.536 123.224 65.392 124.664 65.104C126.2 64.768 127.4 64.408 128.264 64.024C129.272 63.544 130.208 63.304 131.072 63.304C132.08 63.304 133.184 63.472 134.384 63.808C135.536 64.144 136.328 64.504 136.76 64.888C137.192 65.224 137.624 65.92 138.056 66.976C138.44 67.936 138.656 69.328 138.704 71.152C138.704 71.392 138.704 71.728 138.704 72.16C138.752 72.592 138.776 72.904 138.776 73.096C138.776 73.912 138.728 74.608 138.632 75.184C138.392 76.48 138.248 77.368 138.2 77.848C138.008 79.096 137.6 80.536 136.976 82.168C136.352 83.8 135.752 85 135.176 85.768L134.312 86.848L135.32 86.92C137.624 87.16 140.288 88.792 143.312 91.816C145.088 93.592 146.408 95.56 147.272 97.72C148.424 100.6 149.096 104.176 149.288 108.448V109.6C149.288 111.952 148.904 113.968 148.136 115.648C147.368 117.376 146.312 118.576 144.968 119.248C144.44 119.488 143.792 119.752 143.024 120.04C142.256 120.328 141.656 120.568 141.224 120.76C139.592 121.528 137.24 121.912 134.168 121.912H133.52C131.936 121.768 130.232 121.24 128.408 120.328C126.536 119.368 125.12 118.888 124.16 118.888H123.728C122.096 119.08 120.896 119.608 120.128 120.472C118.832 121.912 118.016 123.04 117.68 123.856C117.296 124.624 116.912 125.056 116.528 125.152C116.144 125.248 115.88 125.296 115.736 125.296C115.112 125.296 114.536 125.08 114.008 124.648C113.672 124.36 113.168 124.216 112.496 124.216C111.296 124.216 110.336 123.472 109.616 121.984C109.184 121.12 108.968 120.304 108.968 119.536C108.968 118.48 109.424 117.736 110.336 117.304C110.48 117.256 110.744 117.136 111.128 116.944C111.512 116.752 111.776 116.632 111.92 116.584L112.784 116.224V104.704C112.784 97.744 112.832 89.944 112.928 81.304L113 69.568L112.28 68.488C109.448 64.696 108.032 62.536 108.032 62.008C108.032 61.672 108.32 61.36 108.896 61.072C109.472 60.784 110.024 60.64 110.552 60.64Z" fill="white"/>
		<path id="k-letter" d="M55.544 64.24C55.544 63.28 55.784 62.656 56.264 62.368C56.792 62.032 57.704 61.864 59 61.864C60.056 61.864 60.824 61.936 61.304 62.08C61.832 62.224 62.864 62.704 64.4 63.52C65.888 64.24 66.944 64.648 67.568 64.744H68.144C69.824 64.744 71.192 64.48 72.248 63.952C72.824 63.664 73.496 63.472 74.264 63.376L75.344 63.304L76.208 64.384C76.352 64.576 76.664 64.936 77.144 65.464C77.624 65.944 78.056 66.424 78.44 66.904C78.824 67.384 79.016 67.744 79.016 67.984C79.016 68.128 78.752 68.488 78.224 69.064C77.696 69.64 77.096 70.36 76.424 71.224C75.8 72.04 75.368 72.784 75.128 73.456C75.128 73.504 74.888 74.152 74.408 75.4C73.928 76.504 73.688 77.8 73.688 79.288C73.688 80.92 73.928 82.576 74.408 84.256C74.936 85.936 75.56 87.16 76.28 87.928C76.712 88.408 77.384 88.912 78.296 89.44C79.256 89.92 80 90.16 80.528 90.16H80.672C80.816 90.112 81.08 90.088 81.464 90.088C81.848 90.04 82.136 90.016 82.328 90.016C83.816 89.872 85.304 89.056 86.792 87.568C89.624 84.736 91.04 80.608 91.04 75.184V74.32C91.04 73.504 90.944 72.832 90.752 72.304C90.608 71.728 90.128 70.528 89.312 68.704C88.496 66.88 88.088 65.2 88.088 63.664C88.088 63.28 88.304 62.872 88.736 62.44C89.072 62.056 89.552 61.888 90.176 61.936C91.52 62.128 92.576 62.608 93.344 63.376C94.88 64.912 96.44 65.752 98.024 65.896H98.744C99.176 65.896 99.632 65.704 100.112 65.32C101.456 64.312 102.608 63.736 103.568 63.592H103.784C104.168 63.592 104.6 63.712 105.08 63.952C105.608 64.144 105.872 64.336 105.872 64.528C105.872 64.72 105.92 64.84 106.016 64.888C106.16 64.984 106.232 65.464 106.232 66.328C106.232 67.192 106.16 67.792 106.016 68.128C105.872 68.416 105.44 68.92 104.72 69.64C104.144 70.216 103.568 71.032 102.992 72.088C102.464 73.048 102.128 74.32 101.984 75.904C101.888 76.624 101.768 77.944 101.624 79.864C101.576 80.776 101.432 81.472 101.192 81.952C100.952 82.432 100.376 83.272 99.464 84.472C98.792 85.432 97.76 86.392 96.368 87.352C94.88 88.408 93.944 89.104 93.56 89.44C93.176 89.776 92.528 90.232 91.616 90.808C90.752 91.336 90.176 91.72 89.888 91.96C89.552 92.296 89.384 92.512 89.384 92.608C89.384 92.8 89.816 93.184 90.68 93.76C91.688 94.384 92.96 94.984 94.496 95.56C96.368 96.28 97.664 97.024 98.384 97.792C99.104 98.56 99.464 99.664 99.464 101.104C99.464 102.352 99.2 104.248 98.672 106.792C98.24 108.712 98.024 109.84 98.024 110.176C98.024 110.32 98.072 110.68 98.168 111.256C98.36 112.744 98.912 114.208 99.824 115.648C100.784 117.136 101.816 118.168 102.92 118.744C104.504 119.608 105.296 120.448 105.296 121.264C105.296 121.696 105.08 122.128 104.648 122.56C103.832 123.28 103.064 123.64 102.344 123.64C101.912 123.64 101.432 123.496 100.904 123.208C98.072 121.72 96.44 120.976 96.008 120.976H95.792C95.552 121.072 95 121.48 94.136 122.2C93.272 122.968 92.648 123.616 92.264 124.144C91.976 124.528 91.64 124.72 91.256 124.72C90.92 124.72 90.416 124.576 89.744 124.288C89.216 124.048 88.88 123.856 88.736 123.712C88.64 123.616 88.592 123.424 88.592 123.136C88.592 122.704 88.712 122.296 88.952 121.912C89.192 121.432 89.312 120.424 89.312 118.888C89.312 118.6 89.288 117.952 89.24 116.944C89.24 115.936 89.24 115.048 89.24 114.28C89.192 110.584 89.096 108.16 88.952 107.008C88.856 105.808 88.592 104.68 88.16 103.624C87.92 102.952 87.56 102.424 87.08 102.04C86.6 101.656 85.664 101.08 84.272 100.312C83.312 99.784 82.16 99.232 80.816 98.656C79.472 98.08 78.656 97.792 78.368 97.792C77.84 97.792 76.712 99.016 74.984 101.464C73.784 103.192 72.968 104.56 72.536 105.568C72.152 106.528 71.84 107.944 71.6 109.816C71.408 110.968 71.312 112.096 71.312 113.2C71.312 114.064 71.336 114.784 71.384 115.36L71.528 118.528L73.04 119.968C74 120.928 74.48 121.504 74.48 121.696C74.48 121.84 74.384 122.152 74.192 122.632C74 123.112 73.64 123.352 73.112 123.352C72.392 123.352 70.76 122.704 68.216 121.408L66.848 120.688L65.048 120.76C63.608 120.904 62.768 120.976 62.528 120.976C62.096 120.976 61.688 120.952 61.304 120.904C60.488 120.808 59.96 120.856 59.72 121.048C59.24 121.528 58.256 121.768 56.768 121.768C56.144 121.768 55.52 121.48 54.896 120.904C54.272 120.328 53.96 119.752 53.96 119.176C53.96 118.792 54.176 118.432 54.608 118.096C55.04 117.808 55.496 117.592 55.976 117.448C56.312 117.352 56.576 117.208 56.768 117.016C56.816 116.968 56.984 116.68 57.272 116.152C57.608 115.624 58.088 114.808 58.712 113.704C59.384 112.6 59.984 111.616 60.512 110.752L63.968 104.848L63.896 99.52C63.848 95.968 63.68 94 63.392 93.616C63.296 93.52 63.128 93.28 62.888 92.896C62.696 92.464 62.552 92.176 62.456 92.032L61.88 91.024L62.888 89.872C63.704 88.96 64.184 88.264 64.328 87.784C64.472 87.304 64.544 85.96 64.544 83.752V82.672C64.544 79.552 64.16 76.768 63.392 74.32C62.192 70.48 60.392 67.936 57.992 66.688C56.36 65.872 55.544 65.056 55.544 64.24Z" fill="white"/>
	</g>
</svg>
