<svg width="100" height="100" viewBox="0 0 100 100" fill="none" xmlns="http://www.w3.org/2000/svg">
    <g id="logo">
        <path id="stars" fill-rule="evenodd" clip-rule="evenodd" d="M26.1658 40.7218L24.6382 38.1479L26.1658 35.5739H23.1105L21.5829 33L20.0553 35.5739H17L18.5276 38.1479L17 40.7218H20.0553L21.3261 42.8629L21.1852 43.0507L20.8243 43.5608L20.4806 44.0779L20.1543 44.6023L19.8458 45.1332L19.5552 45.6704L19.2828 46.2143L19.0289 46.7644L18.7939 47.3201L18.5778 47.8821L18.3811 48.4493L18.2039 49.0218L18.0466 49.6L17.9094 50.1829L17.7925 50.7706L17.6963 51.3626L17.6211 51.9599L17.5669 52.5605L17.5343 53.1658L17.5233 53.7745L17.5343 54.3837L17.5669 54.9886L17.6211 55.5896L17.6963 56.1864L17.7925 56.7789L17.9094 57.3666L18.0466 57.9495L18.2039 58.5272L18.3811 59.1002L18.5778 59.6674L18.7939 60.2289L19.0289 60.7852L19.2828 61.3352L19.5552 61.8791L19.8458 62.4163L20.1543 62.9473L20.4806 63.4716L20.8243 63.9888L21.1852 64.4988L21.5629 65.0016L21.9574 65.4969L22.3681 65.985L22.795 66.4645L23.2377 66.9364L23.6959 67.3997L24.1695 67.8549L24.6581 68.3011L25.1614 68.7386L25.6793 69.1671L26.2113 69.5866L26.7573 69.9965L27.317 70.3964L27.8902 70.7873L28.4765 71.1677L29.0756 71.538L29.6874 71.8979L30.3116 72.2473L30.9478 72.5857L31.5959 72.9136L32.2555 73.2301L32.9264 73.5357L33.6083 73.8293L34.301 74.1115L35.0042 74.3813L35.7175 74.6396L36.4408 74.8856L37.1738 75.1186L37.9162 75.3393L38.6677 75.5472L39.4281 75.7421L40.1972 75.9237L40.9746 76.0915L41.7602 76.2459L42.5531 76.387L43.354 76.5133L44.1621 76.6258L44.9774 76.724L45.799 76.8079L46.6274 76.8765L47.4618 76.9304L48.3024 76.969L49.1482 76.9924L49.9998 77L50.8515 76.9924L51.6972 76.969L52.5379 76.9304L53.3722 76.8765L54.2006 76.8079L55.0223 76.724L55.8376 76.6258L56.6457 76.5133L57.4466 76.387L58.2395 76.2459L59.0252 76.0915L59.8026 75.9237L60.5718 75.7421L61.3321 75.5472L62.0835 75.3393L62.8261 75.1186L63.5589 74.8856L64.2825 74.6396L64.9958 74.3813L65.6987 74.1115L66.3913 73.8293L67.0734 73.5357L67.7445 73.2301L68.4038 72.9136L69.052 72.5857L69.688 72.2473L70.3122 71.8979L70.9241 71.538L71.5233 71.1677L72.1098 70.7873L72.6828 70.3964L73.2427 69.9965L73.7886 69.5866L74.3206 69.1671L74.8386 68.7386L75.3418 68.3011L75.8302 67.8549L76.3038 67.3997L76.7622 66.9364L77.205 66.4645L77.6317 65.985L78.0427 65.4969L78.4368 65.0016L78.8148 64.4988L79.1756 63.9888L79.5193 63.4716L79.8454 62.9473L80.1541 62.4163L80.4446 61.8791L80.7169 61.3352L80.9711 60.7852L81.2062 60.2289L81.4218 59.6674L81.6189 59.1002L81.7961 58.5272L81.9534 57.9495L82.0904 57.3666L82.2071 56.7789L82.3035 56.1864L82.3788 55.5896L82.4329 54.9886L82.4655 54.3837L82.4765 53.7745L82.4655 53.1658L82.4329 52.5605L82.3788 51.9599L82.3035 51.3626L82.2071 50.7706L82.0904 50.1829L81.9534 49.6L81.7961 49.0218L81.6189 48.4493L81.4218 47.8821L81.2062 47.3201L80.9711 46.7644L80.7169 46.2143L80.4446 45.6704L80.1541 45.1332L79.8454 44.6023L79.5193 44.0779L79.1756 43.5608L78.8148 43.0507L78.6736 42.8629L79.9448 40.7218H83L81.4722 38.1479L83 35.5739H79.9448L78.4169 33L76.8891 35.5739H73.8338L75.3617 38.1479L73.8338 40.7218H76.7749L76.8037 40.7735L77.062 41.2726L77.3039 41.7775L77.5297 42.2882L77.7386 42.8043L77.9306 43.3262L78.1057 43.853L78.263 44.3844L78.403 44.9211L78.5248 45.4626L78.6288 46.0084L78.7142 46.5584L78.781 47.1123L78.8292 47.6705L78.8584 48.2325L78.8681 48.7978L78.8584 49.3631L78.8292 49.9251L78.781 50.4832L78.7142 51.0376L78.6288 51.5876L78.5248 52.1334L78.403 52.6744L78.263 53.2111L78.1057 53.7431L77.9306 54.2698L77.7386 54.7912L77.5297 55.3074L77.3039 55.8179L77.062 56.3232L76.8037 56.8223L76.5292 57.3151L76.2391 57.8018L75.9338 58.2822L75.6129 58.756L75.2771 59.2227L74.9265 59.6827L74.5616 60.1355L74.1823 60.5812L73.7886 61.0192L73.3814 61.4496L72.9602 61.8719L72.5259 62.2866L72.0785 62.6927L71.6184 63.0907L71.1452 63.4802L70.6602 63.8605L70.1625 64.2323L69.6529 64.5951L69.1319 64.9483L68.5991 65.2924L68.0553 65.6265L67.5005 65.9507L66.9351 66.2653L66.3592 66.5698L65.7727 66.8635L65.1764 67.1471L64.57 67.4197L63.9543 67.6819L63.3293 67.9326L62.6954 68.1724L62.0527 68.4007L61.401 68.6171L60.7409 68.822L60.0728 69.0151L59.397 69.1962L58.7131 69.3645L58.0221 69.5208L57.324 69.6643L56.619 69.7949L55.9073 69.9126L55.1889 70.017L54.4645 70.108L53.7338 70.1857L52.9976 70.2496L52.2558 70.2997L51.5086 70.3354L50.7568 70.3573L49.9998 70.3645L49.2429 70.3573L48.491 70.3354L47.7438 70.2997L47.0021 70.2496L46.2659 70.1857L45.5352 70.108L44.8108 70.017L44.0923 69.9126L43.3806 69.7949L42.6757 69.6643L41.9775 69.5208L41.2864 69.3645L40.6028 69.1962L39.9268 69.0151L39.2588 68.822L38.5989 68.6171L37.9474 68.4007L37.3044 68.1724L36.6703 67.9326L36.0453 67.6819L35.4296 67.4197L34.8235 67.1471L34.2271 66.8635L33.6408 66.5698L33.0647 66.2653L32.4992 65.9507L31.9444 65.6265L31.4006 65.2924L30.868 64.9483L30.3468 64.5951L29.8373 64.2323L29.3398 63.8605L28.8545 63.4802L28.3815 63.0907L27.9212 62.6927L27.4738 62.2866L27.0395 61.8719L26.6186 61.4496L26.2112 61.0192L25.8177 60.5812L25.4383 60.1355L25.0732 59.6827L24.7226 59.2227L24.3868 58.756L24.066 58.2822L23.7605 57.8018L23.4705 57.3151L23.1962 56.8223L22.9379 56.3232L22.6958 55.8179L22.4701 55.3074L22.2612 54.7912L22.0692 54.2698L21.8943 53.7431L21.7368 53.2111L21.5969 52.6744L21.475 52.1334L21.3711 51.5876L21.2856 51.0376L21.2187 50.4832L21.1706 49.9251L21.1416 49.3631L21.1318 48.7978L21.1416 48.2325L21.1706 47.6705L21.2187 47.1123L21.2856 46.5584L21.3711 46.0084L21.475 45.4626L21.5969 44.9211L21.7368 44.3844L21.8943 43.853L22.0692 43.3262L22.2612 42.8043L22.4701 42.2882L22.6958 41.7775L22.9379 41.2726L23.1962 40.7735L23.225 40.7218H26.1658ZM23.0672 40.7948L23.1105 40.7218H23.1357L23.0672 40.7948ZM76.8641 40.7218H76.8891L76.9326 40.7948L76.8641 40.7218Z" fill="white" />
        <path id="outer-oval" d="M97.5 49.5C97.5 71.2258 76.6299 89.5 50 89.5C23.3701 89.5 2.5 71.2258 2.5 49.5C2.5 27.7742 23.3701 9.5 50 9.5C76.6299 9.5 97.5 27.7742 97.5 49.5Z" stroke="white" stroke-width="5" />
        <path id="inner-oval" d="M90.5 49.5C90.5 67.6357 72.4667 82.5 50 82.5C27.5333 82.5 9.5 67.6357 9.5 49.5C9.5 31.3643 27.5333 16.5 50 16.5C72.4667 16.5 90.5 31.3643 90.5 49.5Z" stroke="white" />
        <path id="b-letter" d="M66.04 46.444C65.632 46.204 65.116 46.084 64.492 46.084C63.676 46.108 63.172 46.18 62.98 46.3C62.812 46.396 62.632 46.732 62.44 47.308C62.128 48.196 61.972 49.348 61.972 50.764V52.132C61.996 53.908 62.092 54.976 62.26 55.336C62.428 55.672 62.692 55.972 63.052 56.236C64.252 57.124 65.368 57.568 66.4 57.568C66.808 57.568 67.348 57.508 68.02 57.388C69.292 57.148 70.084 56.644 70.396 55.876C70.852 54.82 71.08 53.764 71.08 52.708C71.08 52.06 70.972 51.496 70.756 51.016C70.612 50.704 69.892 49.936 68.596 48.712C67.324 47.464 66.472 46.708 66.04 46.444ZM63.484 35.644C62.836 35.26 62.428 35.044 62.26 34.996H62.152C61.696 34.996 61.312 35.524 61 36.58C60.688 37.636 60.532 38.788 60.532 40.036C60.532 41.548 60.772 42.616 61.252 43.24C61.612 43.72 62.164 43.96 62.908 43.96C63.316 43.96 63.664 43.852 63.952 43.636C64.336 43.324 64.708 42.628 65.068 41.548C65.236 41.044 65.32 40.408 65.32 39.64C65.32 38.512 65.116 37.552 64.708 36.76C64.588 36.52 64.468 36.352 64.348 36.256C64.228 36.136 63.94 35.932 63.484 35.644ZM55.276 30.82C55.444 30.82 55.6 30.856 55.744 30.928C55.96 31.048 56.296 31.144 56.752 31.216C57.16 31.312 57.472 31.42 57.688 31.54C57.904 31.66 58.288 31.96 58.84 32.44C59.488 32.992 60.1 33.268 60.676 33.268C61.06 33.268 61.612 33.196 62.332 33.052C63.1 32.884 63.7 32.704 64.132 32.512C64.636 32.272 65.104 32.152 65.536 32.152C66.04 32.152 66.592 32.236 67.192 32.404C67.768 32.572 68.164 32.752 68.38 32.944C68.596 33.112 68.812 33.46 69.028 33.988C69.22 34.468 69.328 35.164 69.352 36.076C69.352 36.196 69.352 36.364 69.352 36.58C69.376 36.796 69.388 36.952 69.388 37.048C69.388 37.456 69.364 37.804 69.316 38.092C69.196 38.74 69.124 39.184 69.1 39.424C69.004 40.048 68.8 40.768 68.488 41.584C68.176 42.4 67.876 43 67.588 43.384L67.156 43.924L67.66 43.96C68.812 44.08 70.144 44.896 71.656 46.408C72.544 47.296 73.204 48.28 73.636 49.36C74.212 50.8 74.548 52.588 74.644 54.724V55.3C74.644 56.476 74.452 57.484 74.068 58.324C73.684 59.188 73.156 59.788 72.484 60.124C72.22 60.244 71.896 60.376 71.512 60.52C71.128 60.664 70.828 60.784 70.612 60.88C69.796 61.264 68.62 61.456 67.084 61.456H66.76C65.968 61.384 65.116 61.12 64.204 60.664C63.268 60.184 62.56 59.944 62.08 59.944H61.864C61.048 60.04 60.448 60.304 60.064 60.736C59.416 61.456 59.008 62.02 58.84 62.428C58.648 62.812 58.456 63.028 58.264 63.076C58.072 63.124 57.94 63.148 57.868 63.148C57.556 63.148 57.268 63.04 57.004 62.824C56.836 62.68 56.584 62.608 56.248 62.608C55.648 62.608 55.168 62.236 54.808 61.492C54.592 61.06 54.484 60.652 54.484 60.268C54.484 59.74 54.712 59.368 55.168 59.152C55.24 59.128 55.372 59.068 55.564 58.972C55.756 58.876 55.888 58.816 55.96 58.792L56.392 58.612V52.852C56.392 49.372 56.416 45.472 56.464 41.152L56.5 35.284L56.14 34.744C54.724 32.848 54.016 31.768 54.016 31.504C54.016 31.336 54.16 31.18 54.448 31.036C54.736 30.892 55.012 30.82 55.276 30.82Z" fill="white" />
        <path id="k-letter" d="M27.772 32.62C27.772 32.14 27.892 31.828 28.132 31.684C28.396 31.516 28.852 31.432 29.5 31.432C30.028 31.432 30.412 31.468 30.652 31.54C30.916 31.612 31.432 31.852 32.2 32.26C32.944 32.62 33.472 32.824 33.784 32.872H34.072C34.912 32.872 35.596 32.74 36.124 32.476C36.412 32.332 36.748 32.236 37.132 32.188L37.672 32.152L38.104 32.692C38.176 32.788 38.332 32.968 38.572 33.232C38.812 33.472 39.028 33.712 39.22 33.952C39.412 34.192 39.508 34.372 39.508 34.492C39.508 34.564 39.376 34.744 39.112 35.032C38.848 35.32 38.548 35.68 38.212 36.112C37.9 36.52 37.684 36.892 37.564 37.228C37.564 37.252 37.444 37.576 37.204 38.2C36.964 38.752 36.844 39.4 36.844 40.144C36.844 40.96 36.964 41.788 37.204 42.628C37.468 43.468 37.78 44.08 38.14 44.464C38.356 44.704 38.692 44.956 39.148 45.22C39.628 45.46 40 45.58 40.264 45.58H40.336C40.408 45.556 40.54 45.544 40.732 45.544C40.924 45.52 41.068 45.508 41.164 45.508C41.908 45.436 42.652 45.028 43.396 44.284C44.812 42.868 45.52 40.804 45.52 38.092V37.66C45.52 37.252 45.472 36.916 45.376 36.652C45.304 36.364 45.064 35.764 44.656 34.852C44.248 33.94 44.044 33.1 44.044 32.332C44.044 32.14 44.152 31.936 44.368 31.72C44.536 31.528 44.776 31.444 45.088 31.468C45.76 31.564 46.288 31.804 46.672 32.188C47.44 32.956 48.22 33.376 49.012 33.448H49.372C49.588 33.448 49.816 33.352 50.056 33.16C50.728 32.656 51.304 32.368 51.784 32.296H51.892C52.084 32.296 52.3 32.356 52.54 32.476C52.804 32.572 52.936 32.668 52.936 32.764C52.936 32.86 52.96 32.92 53.008 32.944C53.08 32.992 53.116 33.232 53.116 33.664C53.116 34.096 53.08 34.396 53.008 34.564C52.936 34.708 52.72 34.96 52.36 35.32C52.072 35.608 51.784 36.016 51.496 36.544C51.232 37.024 51.064 37.66 50.992 38.452C50.944 38.812 50.884 39.472 50.812 40.432C50.788 40.888 50.716 41.236 50.596 41.476C50.476 41.716 50.188 42.136 49.732 42.736C49.396 43.216 48.88 43.696 48.184 44.176C47.44 44.704 46.972 45.052 46.78 45.22C46.588 45.388 46.264 45.616 45.808 45.904C45.376 46.168 45.088 46.36 44.944 46.48C44.776 46.648 44.692 46.756 44.692 46.804C44.692 46.9 44.908 47.092 45.34 47.38C45.844 47.692 46.48 47.992 47.248 48.28C48.184 48.64 48.832 49.012 49.192 49.396C49.552 49.78 49.732 50.332 49.732 51.052C49.732 51.676 49.6 52.624 49.336 53.896C49.12 54.856 49.012 55.42 49.012 55.588C49.012 55.66 49.036 55.84 49.084 56.128C49.18 56.872 49.456 57.604 49.912 58.324C50.392 59.068 50.908 59.584 51.46 59.872C52.252 60.304 52.648 60.724 52.648 61.132C52.648 61.348 52.54 61.564 52.324 61.78C51.916 62.14 51.532 62.32 51.172 62.32C50.956 62.32 50.716 62.248 50.452 62.104C49.036 61.36 48.22 60.988 48.004 60.988H47.896C47.776 61.036 47.5 61.24 47.068 61.6C46.636 61.984 46.324 62.308 46.132 62.572C45.988 62.764 45.82 62.86 45.628 62.86C45.46 62.86 45.208 62.788 44.872 62.644C44.608 62.524 44.44 62.428 44.368 62.356C44.32 62.308 44.296 62.212 44.296 62.068C44.296 61.852 44.356 61.648 44.476 61.456C44.596 61.216 44.656 60.712 44.656 59.944C44.656 59.8 44.644 59.476 44.62 58.972C44.62 58.468 44.62 58.024 44.62 57.64C44.596 55.792 44.548 54.58 44.476 54.004C44.428 53.404 44.296 52.84 44.08 52.312C43.96 51.976 43.78 51.712 43.54 51.52C43.3 51.328 42.832 51.04 42.136 50.656C41.656 50.392 41.08 50.116 40.408 49.828C39.736 49.54 39.328 49.396 39.184 49.396C38.92 49.396 38.356 50.008 37.492 51.232C36.892 52.096 36.484 52.78 36.268 53.284C36.076 53.764 35.92 54.472 35.8 55.408C35.704 55.984 35.656 56.548 35.656 57.1C35.656 57.532 35.668 57.892 35.692 58.18L35.764 59.764L36.52 60.484C37 60.964 37.24 61.252 37.24 61.348C37.24 61.42 37.192 61.576 37.096 61.816C37 62.056 36.82 62.176 36.556 62.176C36.196 62.176 35.38 61.852 34.108 61.204L33.424 60.844L32.524 60.88C31.804 60.952 31.384 60.988 31.264 60.988C31.048 60.988 30.844 60.976 30.652 60.952C30.244 60.904 29.98 60.928 29.86 61.024C29.62 61.264 29.128 61.384 28.384 61.384C28.072 61.384 27.76 61.24 27.448 60.952C27.136 60.664 26.98 60.376 26.98 60.088C26.98 59.896 27.088 59.716 27.304 59.548C27.52 59.404 27.748 59.296 27.988 59.224C28.156 59.176 28.288 59.104 28.384 59.008C28.408 58.984 28.492 58.84 28.636 58.576C28.804 58.312 29.044 57.904 29.356 57.352C29.692 56.8 29.992 56.308 30.256 55.876L31.984 52.924L31.948 50.26C31.924 48.484 31.84 47.5 31.696 47.308C31.648 47.26 31.564 47.14 31.444 46.948C31.348 46.732 31.276 46.588 31.228 46.516L30.94 46.012L31.444 45.436C31.852 44.98 32.092 44.632 32.164 44.392C32.236 44.152 32.272 43.48 32.272 42.376V41.836C32.272 40.276 32.08 38.884 31.696 37.66C31.096 35.74 30.196 34.468 28.996 33.844C28.18 33.436 27.772 33.028 27.772 32.62Z" fill="white" />
    </g>
</svg>
